<svg xmlns="http://www.w3.org/2000/svg" viewBox="0 0 400 300" fill="none">
  <rect width="400" height="300" rx="24" fill="#FFF7ED"/>
  
  <circle cx="350" cy="50" r="80" fill="#FFEDD5"/>
  <circle cx="40" cy="250" r="50" fill="#FED7AA" opacity="0.5"/>
  
  <rect x="50" y="60" width="300" height="180" rx="12" fill="#FFFFFF" filter="url(#shadow)"/>
  <path d="M50 72C50 65.3726 55.3726 60 62 60H338C344.627 60 350 65.3726 350 72V84H50V72Z" fill="#F1F5F9"/>
  <circle cx="70" cy="72" r="4" fill="#E2E8F0"/>
  <circle cx="85" cy="72" r="4" fill="#E2E8F0"/>
  <circle cx="100" cy="72" r="4" fill="#E2E8F0"/>
  
  <rect x="80" y="110" width="120" height="12" rx="6" fill="#E2E8F0"/>
  <rect x="80" y="134" width="160" height="8" rx="4" fill="#F1F5F9"/>
  <rect x="80" y="150" width="140" height="8" rx="4" fill="#F1F5F9"/>
  
  <rect x="80" y="180" width="80" height="24" rx="8" fill="#F97316"/>
  
  <rect x="260" y="170" width="20" height="34" rx="4" fill="#FDBA74"/>
  <rect x="290" y="140" width="20" height="64" rx="4" fill="#FB923C"/>
  <rect x="320" y="100" width="20" height="104" rx="4" fill="#F97316"/>

  <circle cx="340" cy="80" r="16" fill="#EF4444" stroke="#FFFFFF" stroke-width="4"/>

  <defs>
    <filter id="shadow" x="30" y="40" width="340" height="220" filterUnits="userSpaceOnUse" color-interpolation-filters="sRGB">
      <feDropShadow dx="0" dy="8" stdDeviation="12" flood-opacity="0.06"/>
    </filter>
  </defs>
</svg>
