<svg width="24" height="24" viewBox="0 0 24 24" fill="none" xmlns="http://www.w3.org/2000/svg">
<path d="M11.8627 8.00012L3.95422 16.0001V20.0001H19.7712M3.95422 20.0001L7.90846 20.0001L15.8169 12.0001M11.8627 8.00012L14.6985 5.13146L14.7002 5.12976C15.0906 4.73488 15.2861 4.53709 15.5115 4.46301C15.71 4.39775 15.9239 4.39775 16.1225 4.46301C16.3477 4.53704 16.543 4.7346 16.9328 5.12892L18.6527 6.86872C19.0442 7.26474 19.24 7.46284 19.3134 7.69117C19.3779 7.89201 19.3779 8.10835 19.3133 8.3092C19.2401 8.53736 19.0445 8.73516 18.6536 9.13061L18.6527 9.13146L15.8169 12.0001M11.8627 8.00012L15.8169 12.0001" stroke="black" stroke-width="2" stroke-linecap="round" stroke-linejoin="round"/>
</svg>
