<svg width="24" height="24" viewBox="0 0 24 24" fill="none" xmlns="http://www.w3.org/2000/svg">
<path d="M22.9888 7.86022C22.9888 7.42927 22.9351 7.01143 22.8342 6.61359C22.746 6.26546 22.3346 6.18232 22.0907 6.43696L20.4406 8.15964C19.7795 8.84983 18.7076 8.84983 18.0465 8.15964C17.3854 7.46944 17.3854 6.35042 18.0465 5.66022L19.6966 3.93754C19.9405 3.68291 19.8609 3.25347 19.5274 3.16136C19.1464 3.05609 18.7461 3 18.3333 3C15.7622 3 13.6779 5.17599 13.6779 7.86022C13.6779 8.43106 13.7722 8.97891 13.9453 9.48774C14.013 9.68651 13.9748 9.91108 13.8319 10.0602L6.03435 18.2008C5.65147 18.6005 5.65147 19.2486 6.03435 19.6483L7.04192 20.7002C7.4248 21.0999 8.04557 21.0999 8.42845 20.7002L16.226 12.5597C16.3689 12.4105 16.584 12.3706 16.7744 12.4412C17.2618 12.622 17.7866 12.7204 18.3333 12.7204C20.9045 12.7204 22.9888 10.5444 22.9888 7.86022Z" stroke="black" stroke-width="1.5" stroke-linecap="round" stroke-linejoin="round"/>
</svg>
