<svg width="25" height="25" viewBox="0 0 25 25" fill="none" xmlns="http://www.w3.org/2000/svg">
<g clip-path="url(#clip0_3_14)">
<path d="M12.5 15.625C14.2259 15.625 15.625 14.2259 15.625 12.5C15.625 10.7741 14.2259 9.375 12.5 9.375C10.7741 9.375 9.375 10.7741 9.375 12.5C9.375 14.2259 10.7741 15.625 12.5 15.625Z" stroke="#1E1E1E" stroke-width="1.6" stroke-linecap="round" stroke-linejoin="round"/>
<path d="M20.2083 15.625C20.0697 15.9392 20.0283 16.2877 20.0896 16.6256C20.1508 16.9635 20.3119 17.2753 20.5521 17.5208L20.6146 17.5833C20.8083 17.7768 20.9619 18.0066 21.0668 18.2595C21.1716 18.5124 21.2256 18.7835 21.2256 19.0573C21.2256 19.3311 21.1716 19.6022 21.0668 19.8551C20.9619 20.108 20.8083 20.3378 20.6146 20.5312C20.4211 20.7249 20.1913 20.8786 19.9384 20.9835C19.6855 21.0883 19.4144 21.1423 19.1406 21.1423C18.8668 21.1423 18.5957 21.0883 18.3428 20.9835C18.0899 20.8786 17.8601 20.7249 17.6667 20.5312L17.6042 20.4687C17.3587 20.2286 17.0469 20.0675 16.7089 20.0062C16.371 19.945 16.0225 19.9863 15.7083 20.125C15.4002 20.257 15.1375 20.4763 14.9524 20.7558C14.7673 21.0352 14.668 21.3627 14.6667 21.6979V21.875C14.6667 22.4275 14.4472 22.9574 14.0565 23.3481C13.6658 23.7388 13.1359 23.9583 12.5833 23.9583C12.0308 23.9583 11.5009 23.7388 11.1102 23.3481C10.7195 22.9574 10.5 22.4275 10.5 21.875V21.7812C10.4919 21.4365 10.3803 21.1021 10.1797 20.8216C9.97906 20.541 9.69868 20.3274 9.375 20.2083C9.06081 20.0697 8.7123 20.0283 8.37438 20.0896C8.03647 20.1508 7.72466 20.3119 7.47916 20.5521L7.41666 20.6146C7.22318 20.8083 6.99341 20.9619 6.7405 21.0668C6.48758 21.1716 6.21649 21.2256 5.94271 21.2256C5.66892 21.2256 5.39783 21.1716 5.14491 21.0668C4.892 20.9619 4.66223 20.8083 4.46875 20.6146C4.27505 20.4211 4.12138 20.1913 4.01654 19.9384C3.9117 19.6855 3.85773 19.4144 3.85773 19.1406C3.85773 18.8668 3.9117 18.5957 4.01654 18.3428C4.12138 18.0899 4.27505 17.8601 4.46875 17.6667L4.53125 17.6042C4.77139 17.3587 4.93248 17.0469 4.99375 16.7089C5.05502 16.371 5.01366 16.0225 4.875 15.7083C4.74295 15.4002 4.5237 15.1375 4.24423 14.9524C3.96476 14.7673 3.63728 14.668 3.30208 14.6667H3.125C2.57246 14.6667 2.04256 14.4472 1.65186 14.0565C1.26116 13.6658 1.04166 13.1359 1.04166 12.5833C1.04166 12.0308 1.26116 11.5009 1.65186 11.1102C2.04256 10.7195 2.57246 10.5 3.125 10.5H3.21875C3.56353 10.4919 3.89792 10.3803 4.17843 10.1797C4.45895 9.97906 4.67262 9.69868 4.79166 9.375C4.93033 9.06081 4.97169 8.7123 4.91042 8.37438C4.84915 8.03647 4.68806 7.72466 4.44791 7.47916L4.38541 7.41666C4.19171 7.22318 4.03805 6.99341 3.93321 6.7405C3.82836 6.48758 3.7744 6.21649 3.7744 5.94271C3.7744 5.66892 3.82836 5.39783 3.93321 5.14491C4.03805 4.892 4.19171 4.66223 4.38541 4.46875C4.5789 4.27505 4.80867 4.12138 5.06158 4.01654C5.31449 3.9117 5.58559 3.85773 5.85937 3.85773C6.13315 3.85773 6.40425 3.9117 6.65716 4.01654C6.91008 4.12138 7.13984 4.27505 7.33333 4.46875L7.39583 4.53125C7.64133 4.77139 7.95314 4.93248 8.29105 4.99375C8.62896 5.05502 8.97748 5.01366 9.29166 4.875H9.375C9.68309 4.74295 9.94585 4.5237 10.1309 4.24423C10.316 3.96476 10.4153 3.63728 10.4167 3.30208V3.125C10.4167 2.57246 10.6362 2.04256 11.0269 1.65186C11.4176 1.26116 11.9475 1.04166 12.5 1.04166C13.0525 1.04166 13.5824 1.26116 13.9731 1.65186C14.3638 2.04256 14.5833 2.57246 14.5833 3.125V3.21875C14.5847 3.55394 14.684 3.88143 14.8691 4.1609C15.0541 4.44037 15.3169 4.65962 15.625 4.79166C15.9392 4.93033 16.2877 4.97169 16.6256 4.91042C16.9635 4.84915 17.2753 4.68806 17.5208 4.44791L17.5833 4.38541C17.7768 4.19171 18.0066 4.03805 18.2595 3.93321C18.5124 3.82836 18.7835 3.7744 19.0573 3.7744C19.3311 3.7744 19.6022 3.82836 19.8551 3.93321C20.108 4.03805 20.3378 4.19171 20.5312 4.38541C20.7249 4.5789 20.8786 4.80867 20.9835 5.06158C21.0883 5.31449 21.1423 5.58559 21.1423 5.85937C21.1423 6.13315 21.0883 6.40425 20.9835 6.65716C20.8786 6.91008 20.7249 7.13984 20.5312 7.33333L20.4687 7.39583C20.2286 7.64133 20.0675 7.95314 20.0062 8.29105C19.945 8.62896 19.9863 8.97748 20.125 9.29166V9.375C20.257 9.68309 20.4763 9.94585 20.7558 10.1309C21.0352 10.316 21.3627 10.4153 21.6979 10.4167H21.875C22.4275 10.4167 22.9574 10.6362 23.3481 11.0269C23.7388 11.4176 23.9583 11.9475 23.9583 12.5C23.9583 13.0525 23.7388 13.5824 23.3481 13.9731C22.9574 14.3638 22.4275 14.5833 21.875 14.5833H21.7812C21.4461 14.5847 21.1186 14.684 20.8391 14.8691C20.5596 15.0541 20.3404 15.3169 20.2083 15.625Z" stroke="#1E1E1E" stroke-width="1.6" stroke-linecap="round" stroke-linejoin="round"/>
</g>
<defs>
<clipPath id="clip0_3_14">
<rect width="25" height="25" fill="white"/>
</clipPath>
</defs>
</svg>
