<svg width="25" height="25" viewBox="0 0 25 25" fill="none" xmlns="http://www.w3.org/2000/svg">
<path d="M21.875 13.3229C21.7111 15.096 21.0457 16.7858 19.9565 18.1946C18.8673 19.6033 17.3995 20.6727 15.7247 21.2776C14.0499 21.8826 12.2375 21.998 10.4995 21.6105C8.76147 21.223 7.16978 20.3485 5.91065 19.0893C4.65151 17.8302 3.77702 16.2385 3.38948 14.5005C3.00195 12.7625 3.11741 10.9501 3.72235 9.27531C4.32729 7.60053 5.3967 6.13267 6.80543 5.04349C8.21416 3.95431 9.90395 3.28886 11.6771 3.125C10.639 4.52945 10.1394 6.25984 10.2693 8.00147C10.3992 9.7431 11.1499 11.3803 12.3848 12.6152C13.6197 13.8501 15.2569 14.6008 16.9985 14.7307C18.7402 14.8606 20.4706 14.361 21.875 13.3229Z" stroke="#1E1E1E" stroke-width="2" stroke-linecap="round" stroke-linejoin="round"/>
</svg>
