<svg width="29" height="28" viewBox="0 0 29 28" fill="none" xmlns="http://www.w3.org/2000/svg">
<path d="M3.5835 7.00008H3.60642M3.60642 7.00008H25.0618M3.60642 7.00008C3.5835 7.36685 3.5835 7.81898 3.5835 8.40031V19.6003C3.5835 20.9071 3.5835 21.5596 3.84388 22.0587C4.07293 22.4977 4.43813 22.8556 4.88766 23.0793C5.3982 23.3334 6.06688 23.3334 7.40227 23.3334L21.2659 23.3334C22.6013 23.3334 23.269 23.3334 23.7795 23.0793C24.229 22.8556 24.5955 22.4977 24.8245 22.0587C25.0846 21.5601 25.0846 20.9079 25.0846 19.6036L25.0846 8.39647C25.0846 7.81699 25.0846 7.36605 25.0618 7.00008M3.60642 7.00008C3.63503 6.54238 3.69933 6.2176 3.84388 5.94051C4.07293 5.50147 4.43813 5.14477 4.88766 4.92107C5.39869 4.66675 6.06818 4.66675 7.40615 4.66675H21.2624C22.6004 4.66675 23.2685 4.66675 23.7795 4.92107C24.229 5.14477 24.5955 5.50147 24.8245 5.94051C24.9691 6.2176 25.0333 6.54238 25.0618 7.00008M25.0618 7.00008H25.0846M16.7231 12.8334L19.1121 15.1667L16.7231 17.5001M11.9451 17.5001L9.55604 15.1667L11.9451 12.8334" stroke="black" stroke-width="2" stroke-linecap="round" stroke-linejoin="round"/>
</svg>
