<svg width="25" height="25" viewBox="0 0 25 25" fill="none" xmlns="http://www.w3.org/2000/svg">
<g clip-path="url(#clip0_3_20)">
<path d="M9.46875 9.375C9.71365 8.67882 10.197 8.09178 10.8333 7.71785C11.4695 7.34391 12.2176 7.20723 12.945 7.33199C13.6724 7.45676 14.3321 7.83492 14.8074 8.39951C15.2826 8.96409 15.5428 9.67867 15.5417 10.4167C15.5417 12.5 12.4167 13.5417 12.4167 13.5417M12.5 17.7083H12.5104M22.9167 12.5C22.9167 18.253 18.253 22.9167 12.5 22.9167C6.74704 22.9167 2.08334 18.253 2.08334 12.5C2.08334 6.74703 6.74704 2.08333 12.5 2.08333C18.253 2.08333 22.9167 6.74703 22.9167 12.5Z" stroke="#1E1E1E" stroke-width="3" stroke-linecap="round" stroke-linejoin="round"/>
</g>
<defs>
<clipPath id="clip0_3_20">
<rect width="25" height="25" fill="white"/>
</clipPath>
</defs>
</svg>
