<?xml version="1.0" encoding="UTF-8" standalone="no"?>
<!-- Created with Inkscape (http://www.inkscape.org/) -->

<svg
   version="1.1"
   id="svg1"
   width="1536"
   height="1024"
   viewBox="0 0 1536 1024"
   sodipodi:docname="logo.svg"
   inkscape:export-filename="лого.png"
   inkscape:export-xdpi="96"
   inkscape:export-ydpi="96"
   inkscape:version="1.4.4 (dcaf3e7d9e, 2026-05-05)"
   xmlns:inkscape="http://www.inkscape.org/namespaces/inkscape"
   xmlns:sodipodi="http://sodipodi.sourceforge.net/DTD/sodipodi-0.dtd"
   xmlns="http://www.w3.org/2000/svg"
   xmlns:svg="http://www.w3.org/2000/svg">
  <defs
     id="defs1" />
  <sodipodi:namedview
     id="namedview1"
     pagecolor="#ffffff"
     bordercolor="#000000"
     borderopacity="0.25"
     inkscape:showpageshadow="2"
     inkscape:pageopacity="0.0"
     inkscape:pagecheckerboard="0"
     inkscape:deskcolor="#d1d1d1"
     inkscape:zoom="2.2235194"
     inkscape:cx="724.75195"
     inkscape:cy="356.41695"
     inkscape:window-width="1920"
     inkscape:window-height="1056"
     inkscape:window-x="0"
     inkscape:window-y="0"
     inkscape:window-maximized="1"
     inkscape:current-layer="svg1" />
  <path
     style="fill:#fd5702;stroke:none"
     d="m 925,438 c -40.03461,-9.26215 -79.46765,-22.88702 -119,-34.14044 -7.66748,-2.18268 -36.53638,-6.34467 -34.62347,-17.85571 2.64978,-15.94538 31.21191,-3.5655 39.62347,-0.97913 27.95807,8.59656 55.93347,17.33227 84,25.5509 13.76166,4.02979 33.21185,6.72254 44.99615,15.07331 10.52082,7.45538 6.77875,22.77331 7.206,34.06555 0.17853,4.71893 1.4743,10.6499 -0.71991,15.07641 -3.31616,6.68988 -10.23377,8.67218 -11.29706,17.20911 -0.66724,5.3573 0.0231,11.3642 2.95911,15.98535 1.77746,2.79767 5.9209,5.16101 6.58722,8.4784 2.02044,10.05883 -5.13007,27.51519 -7.38202,37.53625 -3.63056,16.15588 -15.33155,46.7821 10.65051,47 v -7 h 1 c 4.65094,13.52863 30.26379,9.33521 32.67053,-4 1.53205,-8.48889 -1.96136,-17.76038 -3.66742,-26 -3.3714,-16.28241 -5.83813,-32.90173 -10.00311,-49 15.46497,-8.02795 16.54681,-34.45941 -3,-38 v -33 c 0,-4.13977 -1.06665,-10.14948 1.02777,-13.89197 3.20685,-5.73034 14.32098,-8.21222 19.97223,-10.88891 15.2979,-7.24573 29.1176,-26.87311 16.4421,-43.17902 -6.4872,-8.34534 -19.02523,-11.81 -28.4421,-15.64349 -19.32764,-7.86805 -38.82898,-15.43573 -58,-23.67749 -33.01373,-14.19281 -66.63751,-27.17383 -100,-40.51929 -15.84412,-6.33789 -33.47406,-16.9065 -51,-16.16046 -14.66266,0.62414 -29.57184,9.38934 -43,14.7608 -28.04517,11.21845 -55.95135,22.78015 -84,34 -26.78662,10.71503 -53.25885,22.18378 -80,32.99921 -11.02032,4.45715 -25.43793,9.0805 -28.4707,22.20062 -7.82367,33.84595 42.54767,44.8288 65.4707,54.71912 5.32581,2.29785 14.52893,4.31213 18.39661,8.77935 7.47186,8.63013 -4.97608,28.95386 3.92126,36.68671 8.87225,7.71106 25.8089,11.61774 36.68213,16.01544 24.42847,9.88007 48.80139,20.10749 73,30.5185 11.27466,4.85077 28.54974,16.01709 41,15.16052 8.21826,-0.56543 17.39563,-6.61273 25,-9.67902 19.74487,-7.96161 39.23737,-16.49511 59,-24.40045 15.0882,-6.03552 29.97552,-12.58899 45,-18.78937 5.90125,-2.43536 16.08911,-4.78637 20.39661,-9.64892 C 920.71191,479.61938 919,470.67035 919,466 c 0,-12.02924 0.7865,-17.62408 6,-28 m -419.6821,5.78552 C 501.62085,445.39374 503,452.81793 503,456 v 37 126 32 c 0,3.31622 -1.17938,9.63037 1.02777,12.39587 2.67655,3.35352 10.56354,0.27558 13.97223,-0.39514 13.35309,-2.62732 27.39948,-4.63098 41,-4.98608 48.35657,-1.26245 94.54926,0.59796 142,11.3349 12.8703,2.91223 25.43701,6.43951 38,10.45599 3.88568,1.24231 10.78894,4.71436 14.68134,2.16284 C 761.29785,676.97565 747.37909,667.854 744,665.42822 727.69684,653.72498 709.40405,644.68903 691,636.85034 661.75098,624.39246 631.32587,618.98157 600,615.28552 591.42078,614.27325 582.63959,614.0033 574,614 c -3.16876,-0.001 -7.89978,0.7019 -10.39661,-1.74231 C 561.0141,609.72302 562,604.26788 562,601 v -28 -77 c 0,-7.04504 3.06,-23.51013 -1.02777,-29.36267 -3.95996,-5.66956 -17.73041,-8.66339 -23.97223,-11.35645 -6.64136,-2.86547 -24.64197,-14.5578 -31.6821,-11.49536 M 977,467 v 2 c 11.17273,9.24872 16.56152,23.95294 12.22607,38 -1.78698,5.78986 -6.92865,10.70178 -6.17053,17 1.85004,15.37 6.35578,30.81396 9.39356,46 1.78918,8.94427 4.54974,19.11816 0.9375,28 -6.05182,14.88025 -20.78907,15.44391 -34.3866,16.03937 -27.28815,1.195 -54.48584,4.77246 -81,11.59027 -28.05463,7.21393 -55.47034,18.40692 -80,33.79474 -5.42688,3.40436 -22.02069,12.00335 -21.45374,19.51776 0.50104,6.64075 10.06104,2.52075 13.45374,1.39123 14.39008,-4.79113 29.15955,-8.96222 44,-12.12268 41.34607,-8.80529 84.64911,-14.02142 127,-11.12121 23.328,1.59753 46.7286,6.91119 70,7.91052 l 1,-168 V 457 L 1029.5416,444.09259 1015,448.75232 977,467 M 584,589 c 42.84613,0 87.56488,11.64905 126,30.25848 14.39264,6.96857 27.85443,15.70655 41,24.76697 3.9762,2.74054 10.98779,10.40814 16,10.14356 4.80377,-0.2536 10.29962,-6.55609 14,-9.28473 10.24072,-7.55152 20.80145,-14.51837 32,-20.57563 C 844.35492,607.34888 881.20178,593.82922 917,591 l 6,-33 c -45.9472,0.0303 -98.29834,28.45197 -130,60.00073 -9.19006,9.14582 -20.35718,19.14026 -26,30.99927 h -2 C 758.98376,634.78699 743.50928,621.44067 732,611.57947 697.80292,582.27917 647.26257,556.005 601,556 v -73 c 0,-5.01898 2.76483,-21.41486 -5.04395,-21.44214 C 580.81677,461.50494 584,481.34705 584,491 Z"
     id="path16" />
</svg>
