<?xml version="1.0" encoding="UTF-8" standalone="no"?>
<svg
   version="1.1"
   width="200"
   height="152.2271"
   xmlns="http://www.w3.org/2000/svg"
   xmlns:svg="http://www.w3.org/2000/svg">
  <path
     style="fill:#fd5702;stroke:none;stroke-width:1"
     d="m 159.57037,59.699112 c -15.12697,-3.49968 -30.02662,-8.647792 -44.96379,-12.899865 -2.89714,-0.824718 -13.80517,-2.397314 -13.08239,-6.746725 1.00122,-6.024917 11.79334,-1.347213 14.97161,-0.369961 10.56389,3.248184 21.13431,6.548947 31.73917,9.65433 5.19979,1.522644 12.54898,2.540091 17.00165,5.695401 3.97527,2.817 2.56133,8.60483 2.72276,12.87157 0.0674,1.78303 0.55707,4.02403 -0.27201,5.69658 -1.25301,2.52776 -3.86679,3.27675 -4.26857,6.50241 -0.25212,2.02424 0.008,4.29394 1.11811,6.04002 0.6716,1.0571 2.23718,1.95007 2.48895,3.20354 0.76343,3.8007 -1.93837,10.39654 -2.78927,14.182948 -1.3718,6.10446 -5.79299,17.67648 4.02427,17.75882 v -2.64494 h 0.37784 c 1.75733,5.11176 11.43508,3.52729 12.34446,-1.51137 0.57889,-3.20751 -0.74109,-6.71072 -1.38573,-9.82404 -1.27387,-6.15225 -2.2059,-12.431798 -3.77963,-18.514488 5.84337,-3.03335 6.25216,-13.0204 -1.13355,-14.3582 v -12.46895 c 0,-1.5642 -0.40304,-3.83495 0.38833,-5.24904 1.2117,-2.16519 5.41115,-3.10296 7.54646,-4.11434 5.78026,-2.737777 11.002,-10.153924 6.2126,-16.315064 C 186.38046,33.134485 181.643,31.825374 178.08488,30.3769 170.78198,27.403982 163.41347,24.544556 156.16974,21.430433 143.69561,16.067721 130.99096,11.162881 118.38505,6.1203381 112.39839,3.7255851 105.73698,-0.26773292 99.114843,0.01415808 93.574603,0.24998608 87.941213,3.5618911 82.867423,5.5914811 72.27064,9.8303381 61.726374,14.198894 51.128276,18.438282 41.00703,22.486923 31.004577,26.820355 20.900513,30.906933 c -4.163994,1.684121 -9.611646,3.431041 -10.757569,8.388441 -2.95615,12.788588 16.076512,16.938428 24.737913,20.675458 2.012341,0.86823 5.489709,1.62932 6.9511,3.31725 2.823221,3.26087 -1.880196,10.94013 1.481637,13.86196 3.352354,2.91362 9.751817,4.38973 13.860234,6.05139 9.230225,3.73316 18.439455,7.59756 27.582835,11.53133 4.26009,1.83285 10.78743,6.052008 15.491717,5.728358 3.10525,-0.21365 6.5729,-2.498608 9.44618,-3.657198 7.46055,-3.00827 14.82573,-6.23263 22.29298,-9.21964 5.70103,-2.2805 11.32615,-4.7567 17.00312,-7.0995 2.22976,-0.92019 6.07921,-1.80851 7.7068,-3.64581 1.25265,-1.4141 0.60583,-4.79547 0.60583,-6.56015 0,-4.54521 0.29718,-6.6592 2.26708,-10.57971 M 0.99474,61.885152 c -1.39692,0.60766 -0.875812,3.41287 -0.875812,4.61521 v 13.98033 47.608728 12.09112 c 0,1.25302 -0.445626,3.6388 0.388339,4.68374 1.011327,1.2671 3.991402,0.10417 5.279366,-0.14931 5.045425,-0.99271 10.352811,-1.7498 15.491727,-1.88397 18.271386,-0.47703 35.725156,0.22593 53.654276,4.28286 4.863007,1.10038 9.611297,2.43314 14.358187,3.95076 1.46819,0.46941 4.07657,1.78129 5.5473,0.81722 2.87788,-1.88649 -2.38128,-5.33308 -3.65806,-6.24965 -6.1601,-4.42204 -13.07198,-7.83624 -20.025898,-10.79806 -11.051653,-4.70717 -22.547691,-6.75167 -34.384074,-8.14821 -3.241638,-0.38249 -6.559584,-0.4845 -9.824027,-0.48572 -1.197304,-3.9e-4 -2.984906,0.26521 -3.928325,-0.65833 -0.978356,-0.95772 -0.605836,-3.01893 -0.605836,-4.25369 V 110.70846 81.614242 c 0,-2.66195 1.156211,-8.88324 -0.388342,-11.0946 -1.496258,-2.14223 -6.699383,-3.27344 -9.057835,-4.291 -2.509417,-1.08271 -9.310894,-5.50062 -11.970986,-4.34349 m 178.22367,8.77152 v 0.7557 c 4.22159,3.4946 6.25771,9.05055 4.61958,14.3582 -0.67519,2.18766 -2.61795,4.04361 -2.3315,6.42339 0.69901,5.8075 2.4015,11.642948 3.54931,17.380948 0.67606,3.37958 1.71912,7.22375 0.35425,10.57974 -2.28667,5.62245 -7.8551,5.83543 -12.99288,6.06042 -10.31075,0.45153 -20.58732,1.80327 -30.60561,4.37935 -10.60037,2.72577 -20.9593,6.95499 -30.22775,12.76924 -2.05055,1.28632 -8.32046,4.53543 -8.10625,7.37472 0.18934,2.50919 3.80155,0.95246 5.08345,0.52568 5.43727,-1.81032 11.01787,-3.38636 16.62528,-4.58053 15.62248,-3.32704 31.98442,-5.29795 47.98657,-4.2021 8.81441,0.6036 17.65626,2.61136 26.4493,2.98897 L 200,81.992082 v -15.11388 l -0.9289,-4.87702 -5.49451,1.76066 -14.35818,6.89483 M 30.724535,116.75401 c 16.189283,0 33.08613,4.40156 47.608728,11.43309 5.43821,2.63305 10.52471,5.93466 15.49173,9.3581 1.50239,1.03551 4.1517,3.93271 6.04555,3.83272 1.815077,-0.0958 3.891667,-2.4772 5.289857,-3.50819 3.86942,-2.85332 7.85977,-5.48572 12.0911,-7.77445 11.84738,-6.40819 25.76984,-11.51657 39.2961,-12.58557 l 2.26708,-12.46896 c -17.36102,0.0123 -37.14175,10.75049 -49.12012,22.6711 -3.47243,3.45572 -7.69189,7.23211 -9.824017,11.71298 h -0.7557 c -2.27322,-5.37034 -8.1202,-10.4132 -12.46895,-14.13924 C 73.724629,114.21457 54.62811,104.28696 37.147938,104.28506 V 76.702222 c 0,-1.8964 1.044678,-8.09154 -1.905843,-8.10184 -5.720334,-0.02 -4.51756,7.47728 -4.51756,11.12462 z"
     id="path16" />
</svg>
